<svg xmlns="http://www.w3.org/2000/svg" viewBox="0 0 376 512" width="376" height="512">
	<style>
		tspan { white-space:pre }
		.shp0 { fill: #f7c340 } 
	</style>
	<g id="Layer">
		<g id="Layer">
			<path id="Layer" fill-rule="evenodd" class="shp0" d="M358.66 491.2C346.57 504.42 329.35 512 311.43 512L64.55 512C46.6 512 29.38 504.42 17.29 491.17C5.19 477.92 -0.82 460.1 0.81 442.21L28.04 142.56C28.78 134.3 35.69 128 43.98 128L91.98 128L91.98 96C91.98 43.07 135.05 0 187.98 0C213.35 0 238.12 10.24 255.91 28.06C273.99 46.14 283.98 70.27 283.98 96L283.98 128L331.98 128C340.26 128 347.18 134.3 347.91 142.56L375.21 442.24C376.78 460.1 370.79 477.95 358.66 491.2ZM251.98 96C251.98 78.82 245.35 62.72 233.29 50.66C221.45 38.78 204.94 32 187.98 32C152.68 32 123.98 60.7 123.98 96L123.98 128L251.98 128L251.98 96Z" />
		</g>
	</g>
</svg>