<svg xmlns="http://www.w3.org/2000/svg" viewBox="0 0 518 396" width="518" height="396">
	<style>
		tspan { white-space:pre }
		.shp0 { fill: #f7c33f } 
	</style>
	<g id="Layer">
		<g id="Layer">
			<path id="Layer" class="shp0" d="M389.3 210L509.3 120C516.9 114.3 516.9 101.7 509.3 96L389.3 6C379.5 -1.4 365.3 5.6 365.3 18L365.3 63L80.3 63C72 63 65.3 69.7 65.3 78L65.3 138C65.3 146.3 72 152.8 80.3 152.8L365.3 152.8L365.3 198C365.3 210.4 379.5 217.4 389.3 210Z" />
		</g>
	</g>
	<g id="Layer">
		<g id="Layer">
			<path id="Layer" class="shp0" d="M153 378L153 332.8L438 332.8C446.3 332.8 453 326.3 453 318L453 258C453 249.7 446.3 243 438 243L153 243L153 198C153 185.6 138.9 178.6 129 186L9 276C1 282 1 294 9 300L129 390C138.8 397.4 153 390.4 153 378Z" />
		</g>
	</g>
</svg>