<?xml version="1.0" encoding="UTF-8"?>
<svg width="435px" height="163px" viewBox="0 0 435 163" version="1.1" xmlns="http://www.w3.org/2000/svg" xmlns:xlink="http://www.w3.org/1999/xlink">
    <!-- Generator: Sketch 51.3 (57544) - http://www.bohemiancoding.com/sketch -->
    <title>logo-fob</title>
    <desc>Created with Sketch.</desc>
    <defs>
        <filter x="-0.5%" y="-3.2%" width="101.6%" height="112.8%" filterUnits="objectBoundingBox" id="filter-1">
            <feOffset dx="1" dy="2" in="SourceAlpha" result="shadowOffsetOuter1"></feOffset>
            <feGaussianBlur stdDeviation="0.5" in="shadowOffsetOuter1" result="shadowBlurOuter1"></feGaussianBlur>
            <feColorMatrix values="0 0 0 0 0   0 0 0 0 0.380392157   0 0 0 0 0.219607843  0 0 0 1 0" type="matrix" in="shadowBlurOuter1" result="shadowMatrixOuter1"></feColorMatrix>
            <feMerge>
                <feMergeNode in="shadowMatrixOuter1"></feMergeNode>
                <feMergeNode in="SourceGraphic"></feMergeNode>
            </feMerge>
        </filter>
    </defs>
    <g id="logo-fob" stroke="none" stroke-width="1" fill="none" fill-rule="evenodd">
        <g id="Group-165-Copy" filter="url(#filter-1)" transform="translate(62.000000, 54.000000)" fill="#6EB85C">
            <polygon id="Fill-62" points="0 2.66037736 24.9248555 2.66037736 24.9248555 8.90505303 7.85809025 8.90505303 7.85809025 20.4048643 23.7077071 20.4048643 23.7077071 26.5920563 7.85809025 26.5920563 7.85809025 44.3396226 0 44.3396226"></polygon>
            <path d="M55.8249687,36.6563442 C55.8249687,40.473496 55.9505719,43.6377787 56.0809249,46.276048 L49.1854123,46.276048 L48.8006864,41.4670163 L48.6033099,41.4670163 C47.2522834,43.7055809 44.1591716,47 38.4848603,47 C32.8142433,47 27.5953757,43.5076423 27.5953757,33.0365841 L27.5953757,14.1886792 L35.5184072,14.1886792 L35.5184072,31.6510143 C35.5184072,36.9849659 37.1966355,40.4056939 41.3848176,40.4056939 C44.6103933,40.4056939 46.670181,38.1682228 47.4449102,36.0674497 C47.76789,35.4025511 47.896132,34.4872221 47.896132,33.5571297 L47.896132,14.1886792 L55.8249687,14.1886792 L55.8249687,36.6563442 Z" id="Fill-63"></path>
            <polygon id="Fill-64" points="60.5317919 46.1132075 68.5433526 46.1132075 68.5433526 0.886792453 60.5317919 0.886792453"></polygon>
            <polygon id="Fill-65" points="73.8843931 46.1132075 81.8959538 46.1132075 81.8959538 0.886792453 73.8843931 0.886792453"></polygon>
            <path d="M129.075145,30.3005692 C129.075145,41.8389512 120.675326,47 112.409281,47 C103.271803,47 96.1387283,40.936771 96.1387283,30.8222926 C96.1387283,20.5034057 103.135847,14.1886792 112.940549,14.1886792 C122.61257,14.1886792 129.075145,20.7618595 129.075145,30.3005692 M104.604068,30.6259106 C104.604068,36.6827184 107.738711,41.2610422 112.674096,41.2610422 C117.343027,41.2610422 120.609259,36.87696 120.609259,30.495881 C120.609259,25.5959615 118.343864,19.9180052 112.738525,19.9180052 C106.939352,19.9180052 104.604068,25.3958338 104.604068,30.6259106" id="Fill-66"></path>
            <path d="M131.562859,46.1132075 L131.562859,20.8511941 L127.294798,20.8511941 L127.294798,14.961962 L131.562859,14.961962 L131.562859,13.6231624 C131.562859,9.5924305 132.6691,5.56222949 135.386199,3.00407107 C137.717413,0.828654345 140.825168,0 143.605875,0 C145.740966,0 147.429745,0.385926783 148.65896,0.763359992 L148.135788,6.84369751 C147.233622,6.52253423 146.19894,6.26401106 144.705755,6.26401106 C140.758381,6.26401106 139.462378,9.52979039 139.462378,13.3630467 L139.462378,14.961962 L146.326155,14.961962 L146.326155,20.8511941 L139.533407,20.8511941 L139.533407,46.1132075 L131.562859,46.1132075 Z" id="Fill-67"></path>
            <path d="M159.34104,3.62498196 C161.950471,3.11424582 166.695837,2.66037736 171.37442,2.66037736 C177.390289,2.66037736 181.203988,3.44096674 184.208638,5.44099231 C187.017321,7.05689279 188.891054,9.89974029 188.891054,13.6454963 C188.891054,17.6519853 186.285454,21.2770317 181.402693,23.0184702 L181.402693,23.2116058 C186.152985,24.3736378 190.49711,27.9976111 190.49711,33.9424296 C190.49711,37.8228441 188.756394,40.8556081 186.216483,42.9929745 C183.009844,45.6453689 177.729126,47 169.43719,47 C164.889434,47 161.480259,46.6732791 159.34104,46.4173745 L159.34104,3.62498196 Z M167.500507,20.8220902 L171.711068,20.8220902 C177.459808,20.8220902 180.604591,18.2367567 180.604591,14.5494778 C180.604591,10.4136954 177.390289,8.54189032 172.176354,8.54189032 C169.771101,8.54189032 168.364844,8.67225679 167.500507,8.87075718 L167.500507,20.8220902 Z M167.500507,40.7901567 C168.564095,40.9859746 169.966521,40.9859746 171.843538,40.9859746 C177.125897,40.9859746 181.875642,39.116852 181.875642,33.7519766 C181.875642,28.6424692 177.257819,26.5753827 171.576956,26.5753827 L167.500507,26.5753827 L167.500507,40.7901567 Z" id="Fill-68"></path>
            <path d="M198.893811,32.8550539 C199.08176,38.5399475 203.403559,40.9907302 208.428215,40.9907302 C212.051841,40.9907302 214.591502,40.4127508 217.011938,39.5688366 L218.15161,44.9915485 C215.483872,46.1544773 211.79777,47 207.345293,47 C197.299103,47 191.387283,40.7317654 191.387283,31.1055672 C191.387283,22.3903031 196.597286,14.1886792 206.516961,14.1886792 C216.567315,14.1886792 219.872832,22.5849288 219.872832,29.4895841 C219.872832,30.9774252 219.745797,32.1451795 219.61668,32.8550539 L198.893811,32.8550539 Z M212.494902,27.2977662 C212.564146,24.3874953 211.291192,19.6129996 206.0739,19.6129996 C201.24292,19.6129996 199.206192,24.0641914 198.893811,27.2977662 L212.494902,27.2977662 Z" id="Fill-69"></path>
            <path d="M247.847643,38.7502139 C247.847643,41.5857602 247.976239,44.3603039 248.358382,46.2915148 L241.299157,46.2915148 L240.725423,42.8122316 L240.536955,42.8122316 C238.697048,45.2576829 235.45196,47 231.381153,47 C225.14869,47 221.653179,42.4221366 221.653179,37.6553795 C221.653179,29.7833809 228.588493,25.7218984 240.02882,25.7866466 L240.02882,25.276152 C240.02882,23.2100935 239.201539,19.7960937 233.734922,19.7960937 C230.687153,19.7960937 227.500376,20.7619667 225.401716,22.1136537 L223.878352,16.958407 C226.165481,15.5382259 230.17173,14.1886792 235.07138,14.1886792 C244.991466,14.1886792 247.847643,20.5661165 247.847643,27.4647506 L247.847643,38.7502139 Z M240.219371,30.9440338 C234.689758,30.8782153 229.413171,32.0436842 229.413171,36.8104413 C229.413171,39.9092615 231.381153,41.3256969 233.861956,41.3256969 C237.035717,41.3256969 239.267659,39.2585681 240.02882,37.0078968 C240.219371,36.4224868 240.219371,35.8461737 240.219371,35.2650445 L240.219371,30.9440338 Z" id="Fill-70"></path>
            <path d="M253.953135,24.4638537 C253.953135,20.7722725 253.827851,17.6751726 253.699422,14.9073071 L260.542328,14.9073071 L260.931809,19.7216759 L261.122093,19.7216759 C262.526425,17.2152289 265.925861,14.1886792 271.107578,14.1886792 C276.55087,14.1886792 282.184971,17.8058819 282.184971,27.9585506 L282.184971,47 L274.313585,47 L274.313585,28.8795318 C274.313585,24.2625942 272.647153,20.7722725 268.356577,20.7722725 C265.21924,20.7722725 263.045383,23.0785537 262.214002,25.5215601 C261.957144,26.1772943 261.827142,27.1628098 261.827142,28.0887131 L261.827142,47 L253.953135,47 L253.953135,24.4638537 Z" id="Fill-71"></path>
            <path d="M285.701703,38.9909881 C287.579705,40.0874153 291.262343,41.314127 294.318221,41.314127 C298.070245,41.314127 299.737243,39.8284547 299.737243,37.7567703 C299.737243,35.6298624 298.343244,34.5999179 294.176603,33.1759029 C287.579705,31.1042185 284.866213,27.7489904 284.866213,23.9986197 C284.866213,18.4505373 289.804644,14.1886792 297.651078,14.1886792 C301.401965,14.1886792 304.667711,15.0256097 306.682782,16.0550181 L304.942416,21.6127512 C303.556379,20.8390865 300.775206,19.8069973 297.789853,19.8069973 C294.733975,19.8069973 293.061858,21.2218977 293.061858,23.1611531 C293.061858,25.1679633 294.664588,26.069768 298.968297,27.5543679 C305.154558,29.5558167 307.928907,32.4628231 308,37.1176793 C308,42.8678903 303.206031,47 294.25054,47 C290.150442,47 286.464961,46.0901531 283.965318,44.8028564 L285.701703,38.9909881 Z" id="Fill-72"></path>
        </g>
        <path d="M325.382801,38.5416599 C325.417138,38.5123602 325.450249,38.482437 325.483973,38.4531373 C327.126027,36.9787991 328.61111,34.5325821 327.744709,32.2727613 C327.230878,30.9312071 326.036434,29.375827 324.806427,28.630242 C322.072329,26.9720011 317.484022,28.7892087 316.404854,31.7148194 C316.144259,32.422377 315.950499,33.3755538 316.011202,34.1348536 C316.141193,35.7824967 316.717567,37.9157675 318.081857,38.9524797 C320.202791,40.5652125 323.409639,40.2279537 325.382801,38.5416599" id="Fill-2-Copy" fill="#E8812C"></path>
        <path d="M328.447107,46.9947613 C328.447107,46.9947613 329.780553,52.5601474 328.305803,54.2479315 C326.830435,55.9357156 325.452562,57.0270937 323.600794,56.9994882 C321.748409,56.9718828 319.119775,56.4910345 318.334887,53.726638 C317.550616,50.9622416 318.31761,47.3446442 318.866785,46.0664479 C319.414108,44.7876096 320.533437,42.3127494 321.952036,41.1250732 C323.370635,39.9373971 326.431204,38.9095757 327.251264,42.3397128 C328.073175,45.7704919 328.447107,46.9947613 328.447107,46.9947613" id="Fill-4-Copy" fill="#F7C340"></path>
        <path d="M337.980434,51.1580622 C337.980434,51.1580622 335.754922,53.8727226 334.489712,52.7108239 C333.225143,51.5489252 331.49583,48.1647867 330.544515,46.527171 C329.592558,44.8908915 328.357518,42.4528419 328.178424,41.5408283 C328.000614,40.630819 327.404277,38.7814024 330.170922,39.0212653 C332.934999,39.2617964 338.264802,40.8452926 339.142939,41.1700095 C340.01915,41.4953946 342.647783,41.7392664 341.851811,44.5508073 C341.056481,47.3616801 338.667281,50.4378053 337.980434,51.1580622" id="Fill-6-Copy" fill="#F7C340"></path>
        <path d="M345.424548,38.5979702 C345.424548,38.5979702 346.741974,35.1226968 345.390114,32.7380641 C344.037616,30.3541092 343.407598,29.2465225 338.922865,30.559494 C334.438132,31.8724654 332.509818,33.2688109 331.61708,33.8544626 C330.723067,34.4394365 329.489813,35.1281195 329.154399,36.0269322 C328.818347,36.9257448 328.861708,39.2561506 331.054018,39.4317105 C333.246965,39.6086261 338.08943,40.7358701 338.785766,40.807043 C339.482102,40.878216 343.835475,41.8597248 345.424548,38.5979702" id="Fill-8-Copy" fill="#F7C340"></path>
        <path d="M341.627322,27.9226082 C341.627322,27.9226082 342.397482,26.6736708 341.723512,25.173603 C341.048896,23.6735352 340.447228,22.9067145 339.281337,22.0680463 C338.116737,21.2300496 337.090287,20.5377623 335.297552,21.3885169 C333.502879,22.2379286 331.509373,24.6337397 331.120742,25.0352798 C330.731466,25.4368199 328.559138,27.2095052 328.277672,28.0139283 C327.99556,28.8190229 327.615967,30.836124 328.921946,31.5277398 C330.228571,32.2180128 331.337007,32.1951827 333.808232,31.1685025 C336.280748,30.1424937 338.888188,30.0592312 341.627322,27.9226082" id="Fill-10-Copy" fill="#F7C340"></path>
        <path d="M334.053805,20.6022049 C334.053805,20.6022049 335.275648,18.27022 334.942418,17.3460413 C334.609792,16.4212098 333.310679,14.3170063 332.390675,14.1114156 C331.471879,13.9045197 330.013395,13.7596273 328.459531,15.8540408 C326.906873,17.9484544 325.559466,21.1876487 325.236499,21.9055841 C324.912324,22.6228669 323.720062,25.0338248 324.060536,26.0376291 C324.401614,27.0420861 325.095842,27.9297154 325.887263,27.9975929 C326.677476,28.0654704 329.287775,26.7242365 334.053805,20.6022049" id="Fill-12-Copy" fill="#F7C340"></path>
        <path d="M323.359696,23.7893314 C323.359696,23.7893314 321.824238,27.8062897 320.500567,26.8539616 C319.176265,25.9010155 318.587547,24.8578423 317.583448,23.1416741 C316.579349,21.4255059 315.28152,18.416495 315.077297,17.3776478 C314.874334,16.3388006 314.973925,15.4952393 316.586912,14.4434142 C318.1999,13.3922071 322.807536,12.9701175 323.391843,13.0016352 C323.976779,13.0331528 327.486399,13.2228769 326.943063,15.045958 C326.399728,16.8690391 323.450462,23.5643817 323.359696,23.7893314" id="Fill-14-Copy" fill="#F7C340"></path>
        <path d="M317.573534,29.3314256 C317.573534,29.3314256 318.52282,28.3267543 317.588804,26.1316472 C316.654152,23.9365402 315.601157,20.9945182 314.866924,19.7687293 C314.133963,18.5442259 313.119779,16.6885087 311.801468,17.044611 C310.483793,17.4000705 309.098675,18.3880294 307.991599,19.7256627 C306.885795,21.0626533 306.16047,22.152172 306.058033,22.7493183 C305.95687,23.3458218 305.723366,25.7671888 308.088309,26.7403636 C310.45198,27.7141812 313.734398,29.187442 314.371921,29.4066313 C315.008808,29.6258206 315.907194,30.6671306 317.573534,29.3314256" id="Fill-16-Copy" fill="#F7C340"></path>
        <path d="M314.95698,33.3696715 C314.95698,33.3696715 315.340833,31.526457 313.815341,30.6863778 C312.289848,29.8475385 309.001978,28.4724124 307.546559,28.2411582 C306.089899,28.0092839 304.024903,27.8480879 303.112088,28.2244186 C302.201133,28.6001293 300.715329,29.5524258 300.278765,30.6032998 C299.842201,31.6535539 299.716317,33.954937 301.445829,34.9301729 C303.17596,35.9041689 304.444104,36.1521627 306.178576,35.9178085 C307.911809,35.6834543 310.216791,36.2178811 312.041801,35.4658397 C313.86557,34.7137983 314.367247,34.9425726 314.95698,33.3696715" id="Fill-18-Copy" fill="#F7C340"></path>
        <path d="M306.699143,46.1487827 C306.699143,46.1487827 311.063852,43.582733 312.46166,42.3569215 C313.859468,41.13111 314.756879,39.871102 314.921435,39.4035311 C315.087826,38.9366179 315.083544,37.8594295 313.947558,37.5056277 C312.810347,37.1511682 308.652404,36.9334946 307.859599,37.0183281 C307.068629,37.1031616 302.259803,36.834851 301.595461,37.9146699 C300.931732,38.9944889 300.871171,40.5017636 301.177037,42.0438924 C301.482903,43.5860212 302.5308,45.7765674 302.980423,46.2566331 C303.429435,46.7360412 304.142103,47.7112979 306.699143,46.1487827" id="Fill-20-Copy" fill="#F7C340"></path>
        <path d="M317.343366,47.7441989 C317.082638,48.2328836 316.821292,48.7215684 316.584042,49.2239313 C316.023662,50.4077172 315.385435,51.8159499 314.199184,52.4768556 C312.908519,53.1962044 311.51035,53.1763089 310.251195,52.4010037 C308.662114,51.4230125 307.30534,49.7331333 307.0996,48.5114215 C306.893242,47.2903314 306.696151,45.7403428 309.936715,43.5008487 C313.176044,41.2607329 316.715641,40.9417821 317.18767,41.0076862 C319.555228,41.3384499 319.166608,43.6911 318.452386,45.4680223 C318.136053,46.256384 317.7394,46.9999806 317.343366,47.7441989" id="Fill-22-Copy" fill="#F7C340"></path>
        <text id="Making-live" font-family="SittingPretties-SittingPrettiesOne, Sitting Pretties" font-size="16" font-weight="normal" letter-spacing="1.39999998" fill="#6EB85C">
            <tspan x="28" y="134">Making live</tspan>
        </text>
        <text id="s-easier,-healthier" font-family="SittingPretties-SittingPrettiesOne, Sitting Pretties" font-size="16" font-weight="normal" letter-spacing="1.39999998" fill="#6EB85C">
            <tspan x="133" y="134">s easier, healthier &amp; happie</tspan>
            <tspan x="398.065624" y="134">r</tspan>
        </text>
    </g>
</svg>