<svg xmlns="http://www.w3.org/2000/svg" viewBox="0 0 512 512" width="512" height="512">
	<style>
		tspan { white-space:pre }
		.shp0 { fill: #67ba60 } 
	</style>
	<g id="Layer">
		<g id="Layer">
			<path id="Layer" fill-rule="evenodd" class="shp0" d="M441.43 185.43C441.43 312.31 275.49 498.59 268.42 506.46C261.8 513.84 250.21 513.85 243.58 506.46C236.51 498.59 70.57 312.31 70.57 185.43C70.57 83.18 153.75 0 256 0C358.24 0 441.43 83.18 441.43 185.43ZM349.29 185.43C349.29 133.99 307.44 92.13 256 92.13C204.56 92.13 162.71 133.98 162.71 185.43C162.71 236.87 204.56 278.72 256 278.72C307.44 278.72 349.29 236.87 349.29 185.43Z" />
		</g>
	</g>
	<g id="Layer">
	</g>
	<g id="Layer">
	</g>
	<g id="Layer">
	</g>
	<g id="Layer">
	</g>
	<g id="Layer">
	</g>
	<g id="Layer">
	</g>
	<g id="Layer">
	</g>
	<g id="Layer">
	</g>
	<g id="Layer">
	</g>
	<g id="Layer">
	</g>
	<g id="Layer">
	</g>
	<g id="Layer">
	</g>
	<g id="Layer">
	</g>
	<g id="Layer">
	</g>
	<g id="Layer">
	</g>
</svg>