<svg xmlns="http://www.w3.org/2000/svg" viewBox="0 0 512 512" width="512" height="512">
	<style>
		tspan { white-space:pre }
		.shp0 { fill: #6eb85c } 
	</style>
	<path id="Layer" fill-rule="evenodd" class="shp0" d="M512 512L0 512C0 443.6 26.6 379.4 75 331C102.9 303.1 136.1 282.5 172.3 270C133.5 243.3 108 198.5 108 148C108 66.4 174.4 0 256 0C337.6 0 404 66.4 404 148C404 198.6 378.5 243.3 339.7 270C375.9 282.5 409.1 303.1 437 331C485.4 379.3 512 443.6 512 512ZM256 256C315.6 256 364 207.6 364 148C364 88.4 315.6 40 256 40C196.4 40 148 88.4 148 148C148 207.6 196.4 256 256 256ZM468.3 472C449.5 371.9 361.5 296 256 296C150.5 296 62.5 371.9 43.7 472L468.3 472Z" />
</svg>