<svg xmlns="http://www.w3.org/2000/svg" viewBox="0 0 512 456" width="512" height="456">
	<style>
		tspan { white-space:pre }
		.shp0 { fill: #f7c33f } 
	</style>
	<g id="Layer">
		<g id="Layer">
			<path id="Layer" class="shp0" d="M376 2C348.2 2 322.7 10.8 300.3 28.2C278.8 44.8 264.4 66 256 81.4C247.6 66 233.2 44.8 211.7 28.1C189.3 10.8 163.8 2 136 2C58.5 2 0 65.4 0 149.5C0 240.4 72.9 302.5 183.4 396.6C202.2 412.6 223.4 430.7 245.5 450C248.4 452.5 252.2 454 256 454C259.8 454 263.6 452.6 266.5 450C288.6 430.7 309.8 412.6 328.6 396.6C439.1 302.5 512 240.4 512 149.5C512 65.4 453.5 2 376 2Z" />
		</g>
	</g>
</svg>